<?xml version="1.0" encoding="UTF-8" standalone="no"?>
<!-- Generator: Adobe Illustrator 25.4.1, SVG Export Plug-In . SVG Version: 6.00 Build 0)  -->

<svg
   version="1.1"
   id="Layer_1"
   x="0px"
   y="0px"
   viewBox="0 0 612 792"
   style="enable-background:new 0 0 612 792;"
   xml:space="preserve"
   sodipodi:docname="Skull Hand.svg"
   inkscape:version="1.2.1 (9c6d41e4, 2022-07-14)"
   xmlns:inkscape="http://www.inkscape.org/namespaces/inkscape"
   xmlns:sodipodi="http://sodipodi.sourceforge.net/DTD/sodipodi-0.dtd"
   xmlns="http://www.w3.org/2000/svg"
   xmlns:svg="http://www.w3.org/2000/svg"><defs
   id="defs206" /><sodipodi:namedview
   id="namedview204"
   pagecolor="#ffffff"
   bordercolor="#000000"
   borderopacity="0.25"
   inkscape:showpageshadow="2"
   inkscape:pageopacity="0.0"
   inkscape:pagecheckerboard="true"
   inkscape:deskcolor="#d1d1d1"
   showgrid="false"
   inkscape:zoom="1"
   inkscape:cx="284.5"
   inkscape:cy="339"
   inkscape:window-width="2560"
   inkscape:window-height="1080"
   inkscape:window-x="0"
   inkscape:window-y="0"
   inkscape:window-maximized="0"
   inkscape:current-layer="Layer_1"
   inkscape:lockguides="false"><inkscape:grid
     type="xygrid"
     id="grid169" /></sodipodi:namedview>
<style
   type="text/css"
   id="style121">
	.st0{fill:#FFFFFF;}
	.st1{font-family:'PixoRetoSP-Regular';}
	.st2{font-size:126.065px;}
</style>
<g
   id="g199"
   transform="translate(19,-3)"
   style="fill:#000000;fill-opacity:1">
	<path
   d="m 309.3,587.58 c -0.25,-1.25 -0.83,-2.54 -0.69,-3.74 1.56,-12.85 7.74,-24 11.96,-35.88 1.25,-3.53 1.8,-7.4 2.26,-11.17 0.67,-5.44 1.88,-10.62 4.76,-15.26 0.88,-1.41 1.7,-2.87 2.48,-4.34 3.8,-7.21 3.47,-9.83 -1.51,-16.05 -1.39,-1.73 -2.26,-3.91 -3.64,-6.35 -0.82,1.38 -1.64,2.91 -2.59,4.34 -1.04,1.55 -2.2,3.02 -3.51,4.79 0.97,-0.14 1.63,-0.24 3.14,-0.46 -1.14,1.44 -1.7,2.52 -2.55,3.17 -4.4,3.36 -9.09,5.95 -14.81,5.18 -3.61,-0.49 -7.23,-0.89 -10.81,-1.57 -1.65,-0.31 -3.48,-0.82 -4.73,-1.88 -2.6,-2.22 -4.77,-1.61 -6.82,0.5 -3.59,3.71 -7.58,5.25 -12.77,4.66 -5.58,-0.64 -9.08,3.71 -8.63,9.68 0.49,6.51 0.83,13.04 1.61,19.51 0.51,4.27 2.53,7.74 5.3,11.21 5.38,6.73 7.26,15.17 7.44,23.93 0.02,0.73 -0.91,1.49 -1.4,2.23 -0.57,-0.85 -1.57,-1.66 -1.65,-2.56 -0.76,-8.53 -4.8,-15.8 -7.93,-23.42 -0.51,-1.25 -1.44,-2.31 -2.47,-3.36 -0.03,5.73 -1.83,10.46 -4.89,15.04 -2.03,3.04 -2.76,7.02 -4.25,10.5 -0.62,1.45 -1.69,2.67 -3.1,3.69 -0.26,-5.29 0.83,-10.04 2.96,-14.58 2.08,-4.41 4.03,-8.9 5.9,-13.41 2.8,-6.77 -0.77,-13.32 -0.99,-20 -0.07,-2.16 -2.27,-4.5 -3.96,-6.27 -1.8,-1.88 -4.01,-2.33 -6.22,0 -0.9,0.95 -2.75,0.91 -3.62,1.87 -2.03,2.23 -3.76,4.76 -5.52,7.24 -0.56,0.79 -0.61,2.08 -1.28,2.64 -0.8,0.67 -2.01,0.8 -3.04,1.17 -0.13,-1.09 -0.67,-2.38 -0.31,-3.25 2.35,-5.58 6,-10.06 11.13,-13.54 -1.83,-3.54 -4.52,-6.04 -7.8,-7.7 -2.28,-1.15 -4.45,0.19 -5.46,2.24 -1.29,2.64 -1.95,5.64 -2.8,8.5 -0.98,3.29 -1.86,6.6 -2.82,9.9 -0.77,2.67 -1.83,5.29 -2.26,8.02 -0.22,1.39 0.31,3.23 1.1,4.43 5.15,7.79 6.36,16.31 4.68,25.46 -0.12,0.66 -0.19,1.43 -0.56,1.92 -0.54,0.71 -1.34,1.21 -2.03,1.8 -0.34,-0.85 -0.99,-1.71 -0.98,-2.56 0.02,-3.03 0.79,-6.15 0.29,-9.06 -0.72,-4.24 -1.94,-8.48 -3.59,-12.42 -2.06,-4.94 -2.73,-9.96 -2.11,-15.16 0.2,-1.64 1.86,-3.04 2.32,-4.71 1.23,-4.41 2.3,-8.89 3.18,-13.39 1.35,-6.85 2.26,-8.14 6.79,-8.59 6.53,-0.65 11.84,1.99 13.55,7.14 0.72,2.18 1.85,2.73 3.83,3.25 3.58,0.93 6.8,2.9 7.76,-3.45 0.34,-2.27 3.1,-4.13 5,-6.48 -1.36,-1.54 -2.47,-3.56 -4.13,-4.52 -3.11,-1.79 -4.35,-3.84 -2.72,-7.74 -1.3,0.65 -2.6,1.3 -3.89,1.96 -4.06,2.1 -8.09,1.01 -9.98,-3.34 -1.27,-2.93 -3.17,-4.21 -5.87,-5.09 -6.49,-2.12 -8.64,-5.15 -9.25,-12.13 -0.28,-3.13 -0.77,-6.25 -1.32,-9.35 -0.99,-5.67 -0.12,-10.68 3.92,-14.92 3.58,-3.75 3.6,-11.33 -0.65,-14.55 -5.32,-4.03 -7.15,-9.87 -8.6,-15.73 -2.54,-10.2 -4.22,-20.64 -6.34,-30.97 -0.56,-2.74 -1.28,-5.48 -2.18,-8.12 -4.2,-12.34 -7.42,-24.89 -9.14,-37.93 -0.52,-3.92 -2.93,-7.56 -4.41,-11.36 -1.89,-4.85 -4.09,-9.62 -5.45,-14.63 -1.1,-4.04 -1.17,-8.4 -1.71,-12.79 2.62,-0.6 3.59,0.32 3.96,2.72 0.35,2.3 1.17,4.52 1.72,6.79 0.26,1.07 0.77,2.28 0.51,3.23 -1.15,4.21 0.04,7.94 2.21,11.22 4.11,6.2 5.47,13.19 6.96,20.44 2.47,11.97 6.2,23.65 9.11,35.53 1.79,7.28 3.12,14.68 4.51,22.06 1.43,7.57 3.64,14.6 9.88,19.48 1.13,0.88 1.81,2.42 2.65,3.59 2.73,-2.73 5.48,-5.46 8.2,-8.22 0.19,-0.19 0.26,-0.63 0.21,-0.92 -0.6,-3.98 -1.5,-7.93 -1.77,-11.92 -0.23,-3.43 0.15,-6.91 0.44,-10.36 0.23,-2.76 0.69,-5.31 -2.46,-6.91 -0.83,-0.42 -0.95,-2.61 -1.22,-4.02 -0.23,-1.2 0.07,-2.58 -0.35,-3.67 -3.42,-8.84 -7.03,-17.61 -10.42,-26.46 -1.68,-4.38 -2.98,-8.92 -4.5,-13.36 -2.02,-5.87 -3.35,-11.82 -2.86,-18.17 0.32,-4.09 -0.3,-7.98 -3.14,-11.34 -0.77,-0.91 -0.57,-3.41 0.01,-4.79 1.29,-3.09 1.19,-5.92 -0.33,-8.73 -1.11,-2.06 -2.16,-2.84 -4.83,-1.41 -3.1,1.66 -6.9,1.92 -10.43,2.62 -0.64,0.13 -1.42,-0.58 -2.14,-0.9 -0.01,-0.34 -0.02,-0.69 -0.03,-1.03 1.44,-0.37 2.88,-1.06 4.32,-1.05 4.44,0.02 8.06,-1.34 9.9,-5.93 1.98,-4.95 1.15,-9.66 -2.13,-13.56 -1.77,-2.1 -2.2,-4.05 -2.34,-6.8 -0.58,-10.9 -1.73,-21.72 -5.69,-32.02 -1.12,-2.91 -2.12,-6.12 1.27,-9.2 3.42,-3.1 2.16,-7.53 -2.48,-12.13 -0.21,0.03 -0.51,-0.02 -0.6,0.11 -3.55,4.87 -8,6.73 -13.76,4.94 -2.24,-0.69 -3.57,0.42 -3.27,2.99 0.29,2.43 0.56,4.9 1.21,7.24 0.96,3.42 2.26,6.73 3.52,10.42 1.22,0 2.87,0 4.51,0 0.11,0.18 0.21,0.37 0.32,0.55 -0.89,0.57 -1.75,1.58 -2.66,1.63 -3,0.18 -3.46,2.2 -3.23,4.6 0.78,8.39 1.62,16.77 2.55,25.15 0.54,4.9 1.28,9.78 1.95,14.67 0.51,3.72 1.05,7.43 1.62,11.42 -2.02,0.37 -3.25,-1.27 -3.72,-3.42 -0.5,-2.28 -0.51,-4.68 -0.78,-7.03 -0.66,-5.79 -0.93,-11.68 -2.1,-17.36 -1.72,-8.37 -2.3,-16.73 -1.51,-25.2 0.4,-4.27 -0.23,-8.2 -1.81,-12.18 -2.74,-6.87 -4.54,-14.05 -4.4,-21.59 0.03,-1.42 0.1,-3.15 0.84,-4.19 4.98,-7.02 4.2,-15.15 4.1,-23.08 -0.04,-3.32 0.07,-6.84 -3.93,-8.76 -1.24,-0.59 -1.84,-4 -1.72,-6.05 0.14,-2.36 1.35,-4.66 2.19,-6.95 0.42,-1.14 1.61,-2.26 1.5,-3.29 -0.55,-5.54 3.65,-9.06 4.96,-13.75 0.62,-2.23 0.93,-4.58 1.2,-6.9 0.45,-3.9 0.38,-7.92 1.22,-11.71 1.15,-5.19 6.23,-7.93 10.77,-5.74 1.71,0.83 3.12,3.27 3.79,5.29 0.63,1.9 0.49,4.33 0.01,6.34 -1.23,5.08 -0.94,9.98 0.31,15 0.56,2.23 0.49,4.7 0.4,7.05 -0.44,12.51 -1.02,25.01 -1.42,37.52 -0.04,1.15 0.54,2.64 1.32,3.45 5.65,5.85 6.27,10.24 2.46,17.44 -0.54,1.02 -0.46,2.48 -0.42,3.73 0.08,2.78 1.13,5.85 0.34,8.27 -2.11,6.48 -0.87,12.69 0.14,19.01 1.2,7.55 2.34,15.11 3.63,22.64 0.38,2.19 0.79,4.57 1.89,6.4 2.89,4.79 3.64,9.99 3.85,15.48 0.07,1.76 1.12,3.47 1.67,5.22 0.5,1.58 1.1,3.15 1.35,4.78 0.74,4.88 1.39,9.78 1.97,14.69 0.41,3.46 0.91,6.95 0.89,10.42 -0.03,5.78 1.8,11.01 3.61,16.31 2.68,7.84 5.05,15.81 7.87,23.59 2,5.52 4.51,10.84 7.04,16.82 2.02,-8.32 1.44,-15.75 -0.27,-23.19 -2.79,-12.14 -5.43,-24.32 -8.29,-36.44 -0.29,-1.23 -1.45,-2.54 -2.54,-3.19 -4.61,-2.76 -6.36,-7.38 -7.61,-12.35 -0.2,-0.8 0.12,-1.74 0.22,-2.62 0.74,-6.49 1.38,-12.69 -2.66,-18.76 -2.02,-3.03 -2.58,-7.69 -2.53,-11.59 0.19,-15.21 0.9,-30.41 1.38,-45.61 0.2,-6.31 0.7,-12.65 0.34,-18.93 -0.21,-3.66 -1.9,-7.21 -2.86,-10.83 -0.51,-1.92 -1.3,-3.88 -1.24,-5.81 0.29,-9.58 0.62,-19.17 1.38,-28.71 0.21,-2.6 1.64,-5.27 3.06,-7.52 1.37,-2.17 2.06,-4.02 1.84,-6.79 -0.45,-5.73 -1.04,-11.55 2.58,-16.87 0.81,-1.19 -0.12,-5.11 -1.43,-6.22 -3.78,-3.21 -3.68,-6.78 -2.34,-10.9 0.24,-0.74 0.47,-1.53 0.89,-2.17 2.56,-3.98 3.48,-7.94 1.15,-12.56 -1.39,-2.76 -0.26,-5.57 1.86,-7.65 2.23,-2.18 2.91,-4.81 2.93,-7.9 0.04,-4.84 0.21,-9.68 0.51,-14.51 0.09,-1.53 0.63,-3.09 1.21,-4.53 1.72,-4.31 4.5,-5.98 8.27,-5.12 4.78,1.09 7.19,3.81 7.14,8.46 -0.05,5.41 -0.48,10.82 -0.42,16.23 0.02,1.91 0.67,4 1.59,5.66 2.4,4.3 2.9,8.64 1.17,13.26 -1.76,4.69 -2.39,9.22 0.27,13.95 0.74,1.32 0.53,3.84 -0.16,5.34 -6.09,13.18 -5.12,26.44 -0.42,39.63 1.05,2.96 1.55,5.11 -0.68,7.52 -2.24,2.4 -2.84,5.4 -2.53,8.74 0.46,5.03 -0.09,9.86 -1.03,14.92 -1.21,6.56 -0.47,13.61 0,20.41 0.74,10.66 2.11,21.27 2.88,31.93 0.34,4.69 1.09,8.91 3.49,13.08 3.67,6.39 4.88,13.33 1.72,20.66 -1.28,2.98 -1.36,5.96 1.24,8.98 1.62,1.87 2.29,5.17 2.4,7.87 0.39,10.2 3.71,19.56 6.81,29 3.98,12.1 6.53,24.49 7.21,37.3 0.08,1.48 0.51,2.95 0.77,4.42 0.36,0.03 0.72,0.07 1.08,0.1 0.33,-1.14 0.97,-2.29 0.94,-3.42 -0.09,-3.71 0.01,-7.53 -0.76,-11.11 -2.23,-10.34 -2,-20.82 -2.22,-31.29 -0.07,-3.27 -0.09,-6.54 -0.2,-9.81 -0.18,-5.18 -1.51,-9.87 -4.51,-14.17 -1.43,-2.05 -2.25,-4.84 -2.58,-7.41 -1.11,-8.82 -2,-17.68 -2.73,-26.55 -0.34,-4.14 -0.23,-8.34 -0.12,-12.51 0.09,-3.37 1.13,-6.31 2.74,-9.42 2.01,-3.88 3.12,-8.66 3.33,-13.12 0.47,-9.89 -0.01,-19.83 0.16,-29.74 0.13,-7.6 -1.09,-14.84 -4.46,-21.55 -1.64,-3.27 -1.54,-6.16 0.4,-9.18 1.56,-2.42 2.94,-4.97 4.43,-7.45 0.99,-1.63 1.13,-2.86 -0.58,-4.31 -1.14,-0.97 -2.12,-2.7 -2.34,-4.22 -0.82,-5.74 -2.08,-11.69 3.28,-16.15 0.58,-0.48 0.59,-1.87 0.66,-2.86 0.49,-7.31 0.94,-14.62 1.35,-21.94 0.07,-1.34 0.15,-2.78 -0.23,-4.03 -3.09,-10.2 0,-20.36 0.09,-30.54 0.01,-1.11 0.72,-2.37 1.43,-3.28 4.19,-5.41 5.66,-11.16 2.65,-17.8 -1.24,-2.72 -0.56,-5.7 1.42,-7.49 2.75,-2.48 6.08,-4.25 9.17,-6.32 0.43,0 0.86,0 1.28,0 5.17,2.7 7.05,7.89 6.73,14.18 -0.31,6.09 0.7,12.25 1.04,18.39 0.22,3.89 0.25,7.79 0.42,11.68 0.04,0.9 -0.01,2.05 0.47,2.64 2.81,3.46 2.65,7.54 0.6,10.7 -4.41,6.81 -5.27,14.46 -5.83,22.18 -0.36,5.01 0.13,10.12 0.46,15.16 0.15,2.18 0.99,3.96 3.63,4.36 3.05,0.47 4.12,2.57 3.03,5.69 -2.12,6.02 -6.32,9.72 -12.15,11.51 -2.21,0.68 -4.33,1.71 -6.57,2.27 -0.59,0.15 -1.47,-0.83 -2.17,-1.36 -0.61,-0.46 -1.19,-1.45 -1.72,-1.4 -0.66,0.06 -1.45,0.82 -1.85,1.49 -1.71,2.9 -2.98,6.17 -5.03,8.75 -1.89,2.38 -2.7,4.5 -1.32,7.27 3.39,6.81 5.15,14.02 4.99,21.73 -0.26,12.61 -0.34,25.22 -0.85,37.82 -0.11,2.72 -1.38,5.59 -2.72,8.01 -3.02,5.43 -4.76,11.05 -3.86,17.38 0.4,2.82 1.84,4.15 4.68,3.62 5.96,-1.12 12.13,-1.12 17.56,-4.69 2.01,-1.32 4.36,-1.41 5.29,1.96 0.23,0.81 1.12,1.42 1.71,2.13 0.3,-0.09 0.6,-0.18 0.9,-0.27 0,-2.58 0.46,-5.28 -0.09,-7.72 -1.44,-6.34 -3.82,-12.46 -4.93,-18.85 -2.82,-16.1 -2.73,-32.32 -0.24,-48.47 0.63,-4.08 2.53,-7.94 3.08,-12.02 0.38,-2.82 -0.68,-5.84 -0.91,-8.78 -0.18,-2.41 -0.18,-4.85 0,-7.25 0.03,-0.48 1.2,-0.88 1.84,-1.31 0.24,0.66 0.61,1.3 0.7,1.99 0.4,2.84 0.85,5.69 1.03,8.56 0.18,2.86 0.33,5.78 0.03,8.62 -0.71,6.69 -2.22,13.34 -2.45,20.04 -0.38,11.26 -0.18,22.56 0.14,33.83 0.11,3.86 0.95,7.81 2.12,11.49 1.98,6.25 3.46,12.3 2.8,19.12 -0.44,4.6 1.29,9.43 2.03,14.15 0.53,3.44 0.57,7.05 1.65,10.28 1.29,3.85 1.27,7.45 0.32,11.24 -0.52,2.06 -1.03,4.15 -1.21,6.26 -0.84,9.85 0.11,19.59 2.04,29.24 2.38,11.96 4.83,23.91 7.3,35.85 0.24,1.14 0.8,2.21 1.64,3.21 0.04,-0.74 0.13,-1.48 0.11,-2.21 -0.5,-15.73 1.09,-31.28 3.4,-46.8 1.62,-10.85 2.16,-21.67 -1.74,-32.36 -1.72,-4.71 -1.23,-9.92 1.42,-14.36 2.03,-3.41 2.43,-6.83 0.81,-10.26 -3.07,-6.52 -1.54,-12.11 2.28,-17.62 3.71,-5.36 4.67,-11.79 5.6,-18.15 1.5,-10.3 2.13,-20.64 0.45,-30.97 -0.41,-2.52 -1.27,-5 -2.23,-7.36 -2.14,-5.26 -3.65,-10.65 -3.01,-16.4 0.23,-2.05 1.31,-3.99 2,-5.98 0.36,0.06 0.72,0.12 1.08,0.18 0.24,0.77 0.63,1.52 0.69,2.31 0.13,1.68 0.12,3.38 0.11,5.07 -0.04,5.54 1.16,10.75 2.46,16.15 1.87,7.73 2.38,16.02 2.25,24.05 -0.15,8.75 -1.58,17.49 -2.73,26.19 -0.23,1.71 -1.73,3.22 -2.61,4.84 -1.63,2.98 -3.49,5.87 -4.73,9.03 -0.58,1.49 -0.52,3.86 0.24,5.21 1.89,3.37 1.97,8.03 6.44,9.73 1.95,0.74 1.65,2.42 -0.43,3.22 -0.6,0.23 -1.23,0.4 -1.86,0.53 -4.59,1 -8.26,7.22 -6.56,11.82 4.25,11.49 4.25,23.42 3.27,35.35 -0.56,6.81 -2.23,13.51 -3.2,20.3 -0.49,3.44 -0.74,6.95 -0.77,10.44 -0.1,11.05 0.05,22.11 -0.11,33.16 -0.03,2.12 -0.7,4.39 -1.61,6.31 -2.27,4.81 -3.84,9.52 -1.3,14.81 0.49,1.01 0.24,2.42 0.32,3.65 0.11,1.68 0.02,3.4 0.37,5.03 0.9,4.29 1.63,4.65 5.44,3.06 0.99,-0.41 2.1,-0.72 2.9,-1.4 2.84,-2.39 4.8,-1.23 6.67,1.44 1.46,2.09 2.99,4.17 4.79,5.92 0.66,0.64 2.5,0.86 3.21,0.35 1.82,-1.33 4.36,-2.95 4.71,-4.84 0.59,-3.27 1.78,-5.79 3.61,-8.39 2.91,-4.13 2.6,-8.78 0.91,-13.75 -0.23,4.24 -0.44,8.1 -0.64,11.97 -0.41,0.03 -0.82,0.07 -1.23,0.1 -0.34,-0.59 -0.89,-1.15 -0.99,-1.78 -1.48,-9.56 -3.66,-19.08 -4.17,-28.71 -1.28,-23.83 -2.93,-47.71 1.28,-71.5 1.06,-5.97 5.17,-9.62 7.54,-14.53 1.05,-2.17 1.48,-3.95 1.05,-6.32 -0.67,-3.75 -1.11,-7.58 -1.27,-11.39 -0.13,-3.02 -0.88,-5.4 -3.21,-7.33 -2.5,-2.06 -4.78,-4.41 -7.06,-7.56 1.24,0.17 2.58,0.11 3.7,0.59 0.93,0.4 1.55,1.51 2.4,2.18 1.99,1.56 3.13,1.02 3.7,-1.57 1.4,-6.42 1.3,-12.92 -0.53,-19.08 -3.41,-11.52 -2.61,-23.2 -2,-34.89 0.25,-4.71 0.79,-9.45 1.68,-14.08 0.58,-3 2.06,-5.8 3.08,-8.71 0.36,-1.03 0.79,-2.14 0.77,-3.2 -0.07,-3.49 -0.35,-6.97 -0.52,-10.46 -0.16,-3.22 -1.78,-4.61 -4.8,-4.5 -1.1,0.04 -2.21,-0.3 -3.32,-0.46 -0.03,-0.3 -0.07,-0.59 -0.1,-0.89 1.23,-0.42 2.44,-0.98 3.71,-1.25 5.41,-1.15 7.31,-5.09 3.85,-9.45 -6.48,-8.17 -5.78,-17.3 -3.97,-26.6 0.49,-2.5 2.05,-4.89 3.53,-7.02 1.91,-2.75 2.06,-5.55 -0.3,-8.16 -1.98,-2.19 -3.99,-2.95 -6.69,-0.68 -3.04,2.54 -7.58,-0.25 -7.79,-3.65 3.38,0 6.84,0.36 10.21,-0.08 6.52,-0.84 8.71,-6.86 5,-12.64 -2.8,-4.36 -3.66,-9.3 -3.07,-14.53 0.32,-2.8 0.71,-5.59 0.87,-8.39 0.17,-3.02 -1.38,-4.68 -4.21,-4.76 -1.58,-0.05 -3.24,0.02 -4.74,0.48 -3.71,1.14 -5.17,4.63 -2.97,7.9 1.71,2.53 1.95,4.59 0.8,7.37 -0.88,2.12 -0.75,4.7 -1.62,6.82 -0.85,2.1 -2.72,3.74 -3.55,5.84 -0.97,2.46 -2.07,5.32 -1.72,7.78 0.54,3.81 0.55,7.27 -0.7,10.9 -0.49,1.44 -0.2,3.27 0.04,4.88 0.63,4.17 1.62,8.29 2.09,12.47 0.31,2.77 -0.22,5.65 -0.01,8.45 0.35,4.79 -0.51,8.82 -4.61,11.71 -0.77,0.54 -1.01,2.32 -1.06,3.54 -0.14,3.42 -0.05,6.85 -0.05,10.57 -3.6,-2.95 -4.83,-10.67 -1.99,-15.04 5.36,-8.24 4.92,-17.2 3.91,-26.35 -0.13,-1.21 -0.41,-2.55 -1.05,-3.51 -2.34,-3.5 -1.19,-6.76 0.06,-10.24 0.66,-1.85 0.91,-4.06 0.7,-6.02 -0.54,-5.04 -1.24,-9.86 4,-12.99 1.96,-1.17 2.95,-9.53 1.61,-12.58 -1.75,-3.97 -2.42,-7.83 0.58,-11.36 3.3,-3.87 7.66,-4.18 12.15,-3.2 3.22,0.71 5.49,2.87 5.79,6.39 0.24,2.86 0.34,5.98 -0.49,8.65 -1.67,5.33 -0.3,9.71 2.67,13.83 2.4,3.32 1.91,6.83 0.68,10.28 -1.02,2.86 -1.41,5.46 -0.28,8.47 1.46,3.87 -0.04,7.42 -2.45,10.3 -2.38,2.83 -3.21,5.86 -2.97,9.55 0.27,4.16 0.1,8.34 0.28,12.51 0.09,2 0.33,3.89 2.7,4.84 0.92,0.37 1.68,2.33 1.77,3.62 0.48,6.85 0.71,13.72 1.08,20.58 0.1,1.8 0.58,3.58 0.58,5.37 0.01,2.33 0.44,5.11 -0.57,6.91 -3.99,7.08 -4.86,14.92 -5.4,22.75 -0.53,7.73 -0.36,15.53 -0.22,23.3 0.04,2.41 0.67,4.94 1.55,7.19 3.1,7.91 2.45,15.83 0.73,23.89 -0.35,1.65 -0.04,3.62 0.47,5.27 3,9.72 3.5,19.2 -2.08,28.16 -3.52,5.64 -4.88,12 -5.44,18.52 -1.77,20.83 -1.93,41.68 0.92,62.43 0.87,6.31 2.78,12.47 4.24,18.69 0.62,2.63 1.84,3.44 4.07,1.5 0.89,-0.77 1.96,-1.59 3.04,-1.77 3.75,-0.62 6.19,-3.11 8.01,-6.21 4.32,-7.36 8.41,-14.87 12.62,-22.3 2.61,-4.61 3.31,-9.48 1.84,-14.62 -1.4,-4.89 0,-8.84 3.34,-12.27 1.07,-1.1 2.04,-2.33 3.14,-3.39 2.28,-2.19 2.97,-4.93 3.41,-8.09 0.59,-4.29 1.62,-8.57 3.02,-12.65 1.02,-2.95 3.37,-4.79 6.65,-5.05 2.72,-0.21 4.43,-2.01 5.37,-4.67 2.13,-6.08 4.4,-12.12 6.35,-18.27 0.64,-2.01 1.05,-4.5 0.52,-6.45 -1.71,-6.26 -1.41,-12.22 0.98,-18.17 1.17,-2.9 2.07,-5.93 3.27,-8.81 1.86,-4.47 5.18,-6.66 9.88,-6.21 -2.9,3.63 -9.94,4.2 -6.84,11.35 0.52,0.08 1.4,0.21 3.28,0.49 -1.45,1.11 -2.17,2.06 -3.06,2.29 -3.6,0.92 -5.26,3.58 -5.32,7.09 -0.03,1.96 0.58,4.52 1.83,5.8 2.85,2.93 2.69,5.75 1.28,9.18 -3.52,8.56 -6.96,17.16 -10.32,25.79 -0.7,1.8 -0.96,3.8 -1.44,5.77 -5.47,-3.44 -9.65,-1.38 -11.1,5.32 -0.52,2.41 -1.01,4.87 -1.15,7.33 -0.08,1.46 0.55,2.96 0.92,4.74 5.63,-4.25 9.03,-4.48 13.38,-1.16 2.3,1.75 4.03,3.89 2.47,7.81 -1.25,-1.35 -2.61,-2.61 -3.72,-4.08 -3.1,-4.07 -4.03,-4.28 -8.24,-1.77 -1.29,0.77 -2.72,1.29 -4.13,1.8 -4.15,1.52 -7.31,4.36 -9.16,8.46 -0.65,1.44 -0.1,3.49 -0.09,5.26 0.01,2.43 0.47,4.97 -0.03,7.28 -2.1,9.64 -5.67,18.64 -11.38,26.61 -2.16,3.02 -4.19,6.15 -6.19,9.29 -2.06,3.23 -4.55,5.45 -8.49,5.89 -4.74,0.54 -7.3,5.67 -6.1,10.67 1.01,4.2 1.38,8.57 2.16,12.83 0.37,2.05 1.09,4.03 1.54,6.07 0.15,0.65 -0.04,1.39 -0.07,2.08 -0.73,-0.21 -1.96,-0.23 -2.11,-0.67 -0.78,-2.18 -1.46,-4.44 -1.81,-6.74 -0.32,-2.1 -0.09,-4.28 -0.25,-6.41 -0.15,-1.95 -0.88,-3.49 -3.47,-3.39 -0.19,0.91 -0.49,1.84 -0.57,2.79 -0.31,3.84 -2.06,6.63 -5.44,8.08 -2.03,0.87 -2.57,1.99 -2.05,4.37 1.38,6.34 0.24,12.47 -1.68,18.59 -2.33,7.42 -1.56,8.33 5.85,7.41 7.13,-0.88 12.69,-4.61 16.32,-11.17 2.27,-4.09 1.8,-6.88 -1.08,-10.47 -0.86,-1.07 -1.47,-2.35 -2.2,-3.53 0.21,-0.29 0.43,-0.58 0.64,-0.86 0.99,0.53 2.33,0.79 2.92,1.63 1.76,2.52 3.24,5.25 4.78,7.93 0.2,0.34 0.3,0.96 0.14,1.28 -2.33,4.61 -3.44,10.07 -8.23,12.96 -4.46,2.69 -8.78,5.72 -14.31,5.13 -0.58,-0.06 -1.21,0.29 -2,0.5 0.09,0.66 0.04,1.24 0.25,1.68 2.15,4.54 1.27,8.88 -1.19,12.81 -1.75,2.81 -1.56,4.93 0.64,7.14 0.93,0.93 1.75,1.98 2.56,3.03 4.96,6.54 5.75,13.5 2.29,21.16 -2.18,4.84 -4.76,9.75 -5.61,14.92 -2.02,12.29 -6.25,23.56 -11.55,34.59 -2.24,4.67 -3.37,9.93 -5.11,14.88 -0.73,2.08 -1.71,4.05 -2.58,6.07 -0.18,0 -0.39,0 -0.61,0 z M 268.38,430.45 c 0.69,-3.18 1.94,-5.69 1.6,-7.94 -1.53,-10.16 -0.88,-20.51 -4.18,-30.61 -3.45,-10.57 -4.74,-21.9 -7.28,-32.82 -3.18,-13.69 -4.44,-27.96 -10.7,-40.76 -0.29,-0.6 -0.21,-1.64 0.08,-2.28 2.19,-4.89 1.47,-9.56 -0.57,-14.27 -1.7,-3.92 -3.19,-7.94 -4.8,-11.98 4.63,-1.21 5.76,-2.36 5.21,-6.94 -0.46,-3.83 -0.96,-8.36 -3.13,-11.12 -4.27,-5.44 -4.32,-11.27 -4.64,-17.73 -0.63,-12.7 -2.26,-25.34 -3.54,-38 -0.6,-5.94 -0.51,-11.92 2.19,-17.18 2.17,-4.23 0.39,-7.35 -0.69,-11.23 -1.19,1.01 -1.98,1.67 -3.05,2.58 -0.18,-3.79 1.61,-6.11 3.73,-8.18 4.05,-3.96 4.05,-4.93 2.53,-10.25 -3.54,-12.39 -4.57,-24.87 -0.12,-37.34 0.63,-1.78 1.06,-3.68 1.27,-5.56 0.11,-1.01 -0.34,-2.15 -0.71,-3.16 -0.43,-1.18 -0.91,-2.39 -1.61,-3.41 -0.87,-1.26 -1.95,-3.28 -3,-3.32 -2.93,-0.12 -5.91,0.48 -8.83,1.05 -3.43,0.68 -6.17,2.59 -7.68,6.01 -1.13,2.55 -0.91,5.13 1.65,6.42 3.43,1.73 3.47,4.32 2.67,7.58 -1.64,6.67 -3,13.36 -2.29,20.37 0.15,1.47 -0.56,3.44 -1.52,4.55 -3.14,3.64 -3.78,7.95 -3.79,12.55 -0.01,2.87 0.99,4.72 4.03,4.91 3.2,0.2 6.39,0.58 9.58,0.9 1.07,0.11 2.13,0.3 3.2,0.45 0,0.45 -0.01,0.89 -0.01,1.34 -5.28,0.4 -10.57,0.81 -15.44,1.18 -1.08,4.27 -2.29,7.99 -2.87,11.82 -0.3,1.98 -0.1,4.62 0.95,6.13 2.6,3.76 3.26,7.98 4.05,12.3 0.28,1.55 1.35,2.94 2.21,4.74 -0.67,1.68 -2.19,3.88 -2.34,6.18 -0.66,10.22 -0.93,20.46 -1.34,30.69 -0.25,6.17 -0.29,12.37 -0.82,18.51 -0.47,5.31 -0.35,10.45 1.04,15.15 7.04,-1.92 11.58,-10.83 20.25,-7 -0.87,0.66 -1.9,0.69 -2.85,1.01 -1.07,0.35 -2.61,0.67 -2.99,1.49 -1.45,3.13 -3.81,3.74 -6.8,3.97 -3.34,0.26 -5.2,3.12 -3.8,5.81 1.75,3.37 1.15,6.71 1.03,10.19 -0.14,3.91 -0.07,7.87 0.41,11.74 0.35,2.8 2.07,4.74 5.04,5.4 1.2,0.27 2.47,1.6 3.11,2.8 0.81,1.53 1.06,3.41 1.46,5.15 2.97,12.79 5.53,25.71 9.04,38.34 1.93,6.92 2.5,13.64 1.66,20.64 -0.47,3.91 -1.39,7.8 -1.48,11.72 -0.15,6.38 -0.44,12.88 0.55,19.12 0.96,6.03 9.73,9.52 14.23,6.48 3.43,-2.34 6.17,-2.09 10.1,1.81 z m 1.58,42.34 c 0.31,0.25 0.62,0.51 0.93,0.76 -4.79,1 -3.75,4.65 -4.08,7.65 -0.78,6.97 -2.62,13.45 -7.41,18.65 -0.68,0.74 -1.14,1.71 -1.29,1.93 2.88,2.47 5.16,4.97 7.89,6.63 2.48,1.51 5.96,3.59 8.12,2.79 4.68,-1.73 8.92,-4.98 9.34,-11.27 0.1,-1.5 0.64,-3.12 1.43,-4.36 0.94,-1.47 2.31,-1.28 2.88,0.48 1.03,3.15 1.86,6.37 2.76,9.5 6.5,0.87 12.57,-0.07 18.75,-0.74 5.94,-0.64 9.15,-3.93 11.74,-8.52 2.56,-4.52 4.73,-9.31 6.7,-14.16 0.8,-1.97 0.93,-4.42 0.8,-6.61 -0.21,-3.53 -2.81,-5.49 -6.07,-4.65 -4.95,1.28 -9.84,2.8 -15.17,-0.38 0.23,1.37 0.27,2.14 0.5,2.83 1.89,5.77 0.95,9.37 -3.72,12.92 -5.34,4.06 -11.42,5.87 -17.89,4.75 -3.25,-0.56 -6.51,-2.11 -9.34,-3.94 -2.57,-1.66 -3.44,-4.73 -2.83,-8.1 1.24,0.84 2.55,1.74 2.93,2.96 1.1,3.5 3.4,4.51 6.57,5.8 8.19,3.34 14.5,-0.07 20.72,-4.73 2.63,-1.97 2.69,-5.7 0.55,-8.22 -0.52,-0.62 -0.76,-1.57 -0.95,-2.42 -0.47,-2.12 -0.78,-4.29 -1.27,-6.4 -0.9,-3.9 -2.14,-7.73 -2.73,-11.67 -0.3,-1.99 -0.14,-4.71 0.95,-6.14 2.15,-2.84 1.36,-5.09 0.15,-7.75 -2.49,-5.47 -1.94,-7.16 3.22,-10.01 -0.93,-1.1 -1.8,-2.13 -2.8,-3.32 -5.01,5.19 -9.97,5.04 -15.01,0.53 -3.77,-3.37 -7.72,-2.45 -11.6,-0.26 -3.13,1.77 -5.1,6.36 -4.45,10.14 0.6,3.49 2.62,5 5.99,5.4 3.58,0.43 5.13,5.18 2.45,8.12 -2.16,2.37 -2.62,4.82 -2.73,7.8 -0.16,4.1 -1.7,8.17 0.19,12.31 0.33,0.72 -0.49,2.01 -0.78,3.04 -0.36,-0.02 -0.73,-0.04 -1.09,-0.06 -0.32,-1.7 -0.92,-3.39 -0.92,-5.09 0,-4.61 0.09,-9.24 0.46,-13.83 0.26,-3.3 -0.3,-5.87 -2.32,-8.68 -2.09,-2.9 -3.51,-6.65 -4.25,-10.25 -1.07,-5.2 -2.3,-6.63 -7.12,-4.91 -3.74,1.33 -7.29,1.36 -11,0.29 -1.44,-0.41 -2.94,-0.58 -4.43,-0.76 -5.58,-0.67 -12.15,7.21 -10.86,13.01 0.12,0.54 0.28,1.17 0.64,1.52 3.64,3.61 6.51,7.96 11.47,10.19 4.97,2.23 8.75,6.12 10.94,11.77 0.77,1.98 3.42,3.59 5.55,4.43 2.28,0.91 4.97,0.73 7.49,1.03 z m 30.83,-47.12 c 0,-1.28 0.08,-2.4 -0.01,-3.5 -0.59,-6.87 -1.09,-13.7 1.43,-20.35 0.33,-0.86 0.03,-2.26 -0.43,-3.14 -4.06,-7.6 -6.04,-15.82 -6.88,-24.43 -1.62,-16.46 -3.6,-32.89 -4.81,-49.38 -0.41,-5.58 1.1,-11.31 1.7,-16.98 0.26,-2.45 0.85,-4.96 0.58,-7.36 -0.53,-4.76 -1.48,-9.48 -2.38,-14.18 -0.4,-2.08 -0.96,-4.16 -1.72,-6.13 -1.62,-4.21 -4.75,-6.6 -9.02,-6.13 -4.86,0.53 -9.73,1.47 -14.42,2.89 -1.69,0.51 -3.63,2.69 -4.1,4.5 -0.7,2.67 -0.18,5.69 -0.18,8.87 1.7,-1.45 3.16,-2.68 4.62,-3.92 0.22,0.2 0.45,0.4 0.67,0.61 -0.72,1.7 -1.25,3.53 -2.2,5.07 -2.98,4.83 -2.44,9.57 0.58,13.88 3.54,5.06 4.99,10.58 4.95,16.75 -0.03,3.83 0.24,7.66 0.27,11.49 0.11,14.21 0.52,28.4 3.29,42.37 0.8,4.05 0.53,7.65 -1.3,11.35 -1.64,3.31 -1.83,6.78 0.04,10.34 0.88,1.69 1.01,3.88 1.21,5.88 0.32,3.13 0.38,6.3 0.6,9.44 0.44,6.08 2.04,7.81 7.67,8.94 2.07,0.41 4.53,0.75 5.98,2.11 4.52,4.27 9.09,2.22 13.86,1.01 z M 201.14,210.59 c -0.7,-8.49 -1.38,-16.67 -2.08,-25.06 -4.07,1.11 -2.13,5.16 -4.01,7.08 -1.49,-2.76 -0.44,-7.61 2.71,-10.14 2.98,-2.39 2.95,-5.39 2.95,-9.23 -3.46,0.41 -6.71,0.8 -10.57,1.26 3.1,-4.39 7.35,-4.35 10.9,-5.17 -0.41,-11.16 -0.8,-22.02 -1.2,-32.87 -0.01,-0.33 -0.04,-0.78 -0.24,-0.97 -0.73,-0.7 -1.46,-1.74 -2.31,-1.89 -4.35,-0.75 -7.57,1.94 -8.04,6.58 -0.16,1.56 -0.11,3.15 -0.11,4.73 -0.02,6.39 -0.66,12.51 -4.57,17.9 -2.45,3.38 -1.56,6.73 1.65,9.33 0.81,0.65 1.47,1.51 2.2,2.28 -5.6,-1.37 -7.9,-0.56 -9.32,3.55 -1.24,3.58 -0.19,4.9 5.42,7.18 0,5.69 0.06,11.17 -0.02,16.65 -0.04,2.7 -0.07,5.45 -0.57,8.08 -0.47,2.48 -0.96,5.48 -2.51,7.1 -2.66,2.78 -1.89,5.57 -1.8,8.7 2.33,0.23 4.48,0.01 6.32,0.71 3.05,1.16 5.58,0.39 7.71,-1.67 2.76,-2.67 5.87,-3.96 9.56,-4.11 0.76,-0.03 2.13,-0.84 2.13,-1.31 0.02,-2.67 -0.29,-5.35 -0.49,-8.02 -1.68,2.99 -3.03,4.3 -5.69,1.58 -0.66,-0.67 -2,-0.57 -3.01,-0.9 -1.1,-0.37 -2.18,-0.83 -3.27,-1.25 0.09,-0.36 0.17,-0.72 0.26,-1.08 2.78,0.33 5.53,0.66 8,0.96 z m 75.52,-45.5 c 0.01,0.08 0.03,0.17 0.04,0.25 1.88,-0.37 3.82,-0.54 5.63,-1.15 3.82,-1.28 5.69,-4.45 5.07,-8.6 -0.13,-0.84 -1.1,-2.14 -1.75,-2.19 -2.94,-0.2 -3.61,-2.46 -3.68,-4.67 -0.31,-10.11 -0.73,-20.25 -0.36,-30.34 0.11,-3.15 2.39,-6.31 4.01,-9.26 1.81,-3.3 2.42,-8.31 0.45,-10.2 -2.66,-2.56 -5.39,-0.6 -8.02,0.49 -0.1,0.04 -0.2,0.09 -0.29,0.15 -2.28,1.61 -4.64,2.05 -7.27,0.87 -2.08,-0.93 -3.79,-0.19 -3.94,2.27 -0.21,3.39 -0.13,6.83 0.14,10.22 0.2,2.54 1.45,5.08 1.28,7.54 -0.57,8.07 -1.52,16.11 -2.46,24.14 -0.15,1.32 -1.11,2.51 -1.46,3.84 -1.02,3.81 -2.37,7.61 -2.7,11.5 -0.22,2.56 1.43,5.03 4.5,5.12 3.59,0.09 7.2,0.02 10.81,0.02 z m -42.65,300.72 c -1.09,-0.89 -1.38,-1.2 -1.74,-1.4 -0.78,-0.44 -1.59,-0.83 -2.39,-1.25 -0.36,0.9 -0.9,1.77 -1.04,2.71 -0.17,1.09 -0.06,2.25 0.06,3.36 0.4,3.81 0.96,7.59 1.27,11.41 0.48,5.84 3.19,8.5 8.83,7.98 3,-0.28 4.14,0.75 4.59,3.94 0.25,1.79 1.73,3.82 3.21,4.87 1.96,1.39 11.27,-2.05 12.61,-4.18 0.17,-0.27 0.34,-0.61 0.35,-0.92 0.2,-7.15 1.49,-14.48 -4.14,-20.4 -2.1,-2.21 -3.99,-4.76 -5.46,-7.46 -1.86,-3.41 -4.66,-5.58 -7.66,-7.49 -2.33,-1.48 -5,-2.37 -7.66,-3.59 -3.4,3.45 -1.19,7.67 -0.83,12.42 z m 79.71,4.1 c 6.52,-0.6 10.08,-2.9 10.76,-9.17 0.27,-2.51 1.21,-4.97 2.04,-7.39 1.43,-4.15 -0.82,-12.17 -3.97,-14.51 -1.57,-1.17 -3.07,-2.62 -4.14,-4.28 -1.56,-2.41 -3.16,-2.78 -5.71,-1.73 -1.85,0.76 -4.07,1.02 -6.05,0.78 -3.22,-0.4 -4.31,0.57 -3.46,3.94 0.22,0.86 0.53,1.75 1,2.47 2.21,3.34 2.43,6.52 -0.11,9.86 -1.98,2.61 -1.69,5.33 0.02,8.12 1.08,1.76 2.05,3.73 2.51,5.75 1,4.33 2.9,6.17 7.11,6.16 z M 231.22,118.3 c 2.93,-0.9 6.32,-1.12 8.7,-2.86 4.76,-3.49 5.09,-7.51 1.6,-13.88 -2.24,-4.09 -3.08,-7.99 -2.53,-12.51 0.45,-3.68 0.79,-7.4 0.89,-11.1 0.03,-1.14 -0.63,-2.92 -1.46,-3.33 -2.39,-1.21 -5.08,-2.12 -7.62,-0.28 -2.26,1.63 -2.19,4.05 -1.98,6.66 0.58,7.04 0.55,14.29 -3.3,20.25 -2.35,3.63 -2.88,6.58 -1.7,10.54 1.71,5.72 1.55,5.77 7.4,6.51 z m 36.02,-20.9 c 3.39,1.15 6.5,1.03 9.74,-0.46 1.87,-0.86 4.1,-0.86 6.16,-1.24 0.9,-0.17 2.55,-0.23 2.59,-0.54 0.41,-2.8 1.66,-6.38 0.52,-8.33 -2.9,-4.95 -3.4,-10.12 -3.34,-15.52 0.04,-3.7 0.56,-7.39 0.78,-11.09 0.26,-4.38 -2.1,-6.27 -5.77,-4.23 -2.49,1.39 -4.66,3.52 -6.73,5.59 -0.56,0.56 -0.65,2.38 -0.21,3.17 3.39,6.19 3.48,12.8 -1.08,18.39 -3.65,4.49 -3.16,9.19 -2.66,14.26 z M 226.6,432.13 c -0.38,0.41 -0.75,0.81 -1.13,1.22 1.81,1.73 3.63,3.47 5.44,5.2 0.33,-0.38 0.66,-0.76 0.99,-1.14 -1.77,-1.76 -3.53,-3.52 -5.3,-5.28 z"
   id="path123"
   style="fill:#000000;fill-opacity:1" />
	<path
   d="m 402.43159,279.79115 c 0.98,-3.10998 2.03,-6.00999 2.79,-8.98999 0.74,-2.88 1.31,-5.83 1.72,-8.78 0.64,-4.62 2.66,-8.27 6.29,-10.93 3.13,-2.29 6.3,-2.35 8.89,-0.14 2.69,2.3 3.73,6.37 2.47,9.71 -0.2,0.52 -0.34,1.15 -0.71,1.5 -3.65,3.48 -3.46,7.91 -3.06,12.51 0.12,1.37001 0.02,3.35 -0.79,4.13001 -2.48,2.41999 -1.88,5.14998 -1.73,8.10998 0.4,7.74 0.76,15.50001 0.6,23.23001 -0.08,4.16 -1.26,8.16999 -5.51,10.32999 -1.2,0.61 -1.97,2.59 -2.54,4.10001 -2.61,6.88999 -4.98,13.88999 -7.62,20.76999 -1.68,4.38 -2.47,8.20001 0.6,12.63001 3.42,4.92999 -0.81,16.63999 -6.55,18.97999 -2.89,1.17 -3.65,2.86 -4.02,5.94 -0.52,4.4 -1.59,8.86 -3.25,12.92 -0.89,2.17 -3.5,3.57 -5.34,5.3 -1.1,1.04 -2.43,1.89 -3.29,3.12 -4.53,6.43 -8.75,13 -10.78,20.95 -0.96,3.74 -2.85002,7.32 -4.83003,10.64 -3.58999,6.01 -5.19999,12.49 -5.54999,19.5 -0.35,7.02 -4.84,12.55 -10.84,13.71 -2.50999,0.49 -4.83999,0.16 -7.31999,-2.93 1.72,0.11 2.7,-0.09 3.43,0.26 3.2,1.55 5.63999,0.32 7.68999,-2.18 2.86,-3.49 3.95,-7.74 4.05,-12.22 0.12,-5.21 1.56,-9.75 4.05,-14.32 3.65999,-6.7 6.44,-13.92 9.73002,-20.84 2.1,-4.42 4.07,-9 6.82,-12.95 1.94,-2.78 5.19,-4.5 7.67,-6.9 1.21,-1.17 2.51,-2.71 2.87,-4.31 1.18,-5.36 1.93,-10.82 2.9,-16.23 0.15,-0.83 0.6,-1.6 0.93,-2.43 3.1,2.19 5.12,1.89 7.14,-1.17 2.29,-3.45999 3.38,-7.37 2.37,-11.51999 -0.35,-1.43 -1.8,-2.54 -2.69,-3.84 -0.7,-1.03 -1.96,-2.24 -1.83,-3.2 0.4,-2.97001 0.76,-6.23001 2.17,-8.72002 4.29,-7.60999 7.73,-15.45999 9,-24.28999 0.15,-1.03 1.14,-2.38 2.05,-2.76 3.61,-1.50999 5.21,-4.66999 5.31,-8.2 0.25,-8.52 -0.13,-17.07 -0.09,-25.59999 0.01,-2 0.8,-3.99001 1.08,-5.99999 0.39,-2.87 0.84,-5.76 0.91,-8.65001 0.08,-3.44 0.23,-6.57 2.89,-9.25 2.08,-2.09 1.69,-5.77 -0.17,-7.27999 -1.82,-1.47 -5.4,-1.05 -6.87,1.38999 -1.51,2.52 -2.55,5.42 -3.4,8.29 -1.32,4.4 -2.19,8.94002 -3.47,13.35001 -0.58,1.86999 -1.58,3.72999 -4.17,3.25998 z"
   id="path125"
   style="fill:#000000;fill-opacity:1" />
	
	
	
	<path
   id="path133"
   style="fill:#000000;fill-opacity:1"
   d="m -290.07617,308.42969 c -0.0821,0.0177 -0.16377,0.0359 -0.2461,0.0566 0.0889,0.0834 0.16838,0.15788 0.25586,0.24023 -0.002,-0.099 -0.007,-0.19791 -0.01,-0.29687 z" />
	
	
	
	
	
	
	
	
	
	<path
   d="m 340.32012,217.73508 c -2.27,0.57 -4.53,1.13 -7.08,1.77 0.5,-3.13 2.59,-3.44 4.49,-3.68 0.95,-0.12 1.99,0.51 2.98,0.8 -0.12,0.37 -0.25,0.74 -0.39,1.11 z"
   id="path153"
   style="fill:#000000;fill-opacity:1" />
	
	
	
	<path
   id="path161"
   style="fill:#000000;fill-opacity:1"
   class="st0"
   d="m 903.50586,883.18945 c 0.0283,0.18991 0.0518,0.3804 0.0801,0.57032 0.0157,-0.0129 0.0293,-0.0224 0.0449,-0.0352 -0.045,-0.17742 -0.0792,-0.35798 -0.125,-0.53516 z" />
	<path
   id="path163"
   style="fill:#000000;fill-opacity:1"
   class="st0"
   d="m -249.46094,382.8457 c -0.0769,0.0218 -0.15355,0.0446 -0.23047,0.0664 0.0149,0.006 0.03,0.0154 0.0449,0.0215 0.0618,-0.0294 0.1237,-0.0585 0.18554,-0.0879 z m 26.88282,23.60547 c -0.0108,0.0161 -0.0205,0.0328 -0.0313,0.0488 0.0114,-0.008 0.0218,-0.0174 0.0332,-0.0254 -9e-4,-0.008 -7.6e-4,-0.0156 -0.002,-0.0234 z m 16.2246,1.60352 c 2.8e-4,0.002 -2.7e-4,0.002 0,0.004 0.001,-7.1e-4 0.003,-2.5e-4 0.004,-0.002 -10e-4,-7.7e-4 -0.003,-2.5e-4 -0.004,-0.002 z m -44.23632,27.20117 c 0.0684,0.2601 0.14343,0.5181 0.21484,0.77734 0.069,-0.13967 0.13568,-0.28043 0.20508,-0.41992 -0.14319,-0.11603 -0.28355,-0.23541 -0.41992,-0.35742 z" />
	
	<path
   id="path167"
   style="fill:#000000;fill-opacity:1"
   class="st0"
   d="m -53.080078,-16.003906 c -0.04022,0.02091 -0.0809,0.03954 -0.121094,0.06055 -0.131796,0.06902 -0.264667,0.136088 -0.396484,0.205078 -0.08921,0.294663 -0.181185,0.589334 -0.283203,0.880859 0.264145,-0.38378 0.535462,-0.76334 0.800781,-1.146484 z m -8.164063,62.77539 c -0.203827,0.431815 -0.351314,0.865714 -0.451171,1.302735 0.150863,-0.434008 0.300657,-0.868597 0.451171,-1.302735 z" />
	
	
	
	<path
   id="path175"
   style="fill:#000000;fill-opacity:1"
   class="st0"
   d="m -289.74609,157.00977 c -0.4924,0.31935 -0.78343,0.62909 -0.0391,0.084 0.0145,-0.0275 0.0249,-0.0564 0.0391,-0.084 z" />
	
	
	
	
	
	<path
   id="path187"
   style="fill:#000000;fill-opacity:1"
   d="m -145.67773,392.08594 c 9.5e-4,0.001 0.001,0.003 0.002,0.004 v -0.004 c -6.5e-4,-2e-5 -0.001,2e-5 -0.002,0 z" />
	
	
	
	
	
</g>
<text
   transform="scale(0.98025511,1.0201426)"
   class="st1 st2"
   id="text201"
   x="66.607155"
   y="687.37225"
   style="stroke-width:0.980255">5A BOIZ</text>
</svg>
